<svg xmlns="http://www.w3.org/2000/svg" xml:space="preserve" version="1.1" viewBox="641.57 345.7 466.35 209.15">

 <g>
  <title>Eddy</title>
	 <path id="svg_1" d="m837,414.9c0,-22.9 0,-45.8 0,-68.7c1.8,-0.5 21,-0.7 24.6,-0.2c0,52.8 0,105.5 0,158.5c-7.9,0 -15.6,0 -23.7,0c0,-5.6 0,-11.1 0,-16.9c-0.5,0.3 -0.7,0.4 -0.8,0.5c-6,9.1 -14.8,14 -25.3,15.7c-14.1,2.3 -27,-0.7 -38.2,-9.8c-8.5,-6.9 -13.7,-15.9 -16.3,-26.5c-3.5,-14 -2.8,-27.8 3.6,-40.9c6.8,-14 17.8,-22.8 33.1,-25.9c9.4,-1.9 18.8,-1.1 27.7,2.8c5.3,2.4 9.8,5.7 13.5,10.1c0.4,0.5 0.9,1 1.4,1.5c0.1,-0.1 0.2,-0.1 0.4,-0.2zm-56.6,35.8c0,5.7 0.8,10.1 2.5,14.4c3.1,7.8 8.3,13.6 16.4,16.3c11.1,3.7 22.9,0 30.1,-9.6c5.9,-7.8 7.8,-16.7 5.9,-26.3c-1.7,-9 -6.4,-16 -14.2,-21c-9.3,-5.9 -26.1,-5.5 -34.9,7.5c-4,6.1 -5.7,12.7 -5.8,18.7z"/>
	 <path id="svg_2" d="m960,414.9c0,-23 0,-46 0,-69c8.3,0 16.3,0 24.5,0c0,52.9 0,105.6 0,158.6c-7.8,0 -15.6,0 -23.7,0c0,-5.5 0,-11.1 0,-16.6c-0.1,0 -0.3,-0.1 -0.4,-0.1c-0.2,0.3 -0.5,0.5 -0.7,0.8c-5.7,8.3 -13.7,13 -23.4,15c-24.4,5 -48,-8 -55.6,-33.9c-4.2,-14.4 -3.7,-28.8 2.8,-42.5c6.7,-14.2 17.8,-23.2 33.2,-26.3c8.8,-1.8 17.5,-1.2 25.9,2.1c5.9,2.3 11,5.8 15.2,10.6c0.5,0.6 1,1.1 1.5,1.7c0.3,-0.3 0.5,-0.4 0.7,-0.4zm-1.9,37.5c-0.4,-10.4 -3.9,-18.9 -11.7,-25.4c-11.7,-9.7 -32.4,-7.8 -40.5,9c-1.9,3.9 -3,7.9 -3.4,12.1c-0.8,8.5 0.9,16.4 5.8,23.5c9.2,13.2 25.8,13.2 35,7.5c10,-6.2 14.3,-15.6 14.8,-26.7z"/>
	 <path id="svg_3" d="m1007.4,553.7c0.7,-7.1 1.4,-14 2.1,-21.2c1.1,0.2 2,0.3 2.9,0.4c3.6,0.6 7.1,0.9 10.7,0.3c3.7,-0.6 6.6,-2.3 8.7,-5.4c0.8,-1.1 1.5,-2.3 2.1,-3.5c3.2,-7.6 6.4,-15.2 9.7,-22.7c0.6,-1.3 0.1,-2.3 -0.4,-3.4c-6.8,-15.6 -13.5,-31.2 -20.3,-46.8c-6.5,-15 -13,-30 -19.5,-45.1c-0.3,-0.8 -0.7,-1.6 -1.1,-2.6c9.2,0 18.1,0 27.2,0c9.1,22.4 18.1,44.9 27.2,67.4c0.2,0 0.3,0 0.5,0c8.2,-22.5 16.4,-44.9 24.6,-67.4c8.8,0 17.4,0 26.1,0c-0.2,0.7 -0.4,1.3 -0.6,1.9c-16.4,40.7 -32.7,81.5 -49.2,122.2c-1.3,3.3 -3,6.5 -4.7,9.7c-5.7,10.4 -14.6,15.8 -26.2,17c-6,0.6 -12,0.4 -17.9,-0.6c-0.5,0.2 -1.1,0 -1.9,-0.2z"/>
	 <path id="svg_4" d="m737.2,484.8c-3.2,4.3 -6.7,7.8 -10.8,10.8c-7.1,5.1 -15.2,7.8 -23.8,8.7c-9.9,1 -19.7,0.4 -29,-3.2c-18.4,-7.1 -28.8,-20.6 -31.4,-40c-1.4,-10.8 -0.5,-21.4 4,-31.5c7.7,-17.3 21.2,-26.9 39.8,-29.7c8.2,-1.2 16.3,-0.7 24.2,1.8c11,3.5 19.2,10.3 24.7,20.4c4.1,7.5 6.2,15.6 6.7,24c0.3,4.4 0,8.9 0,13.7c-8.3,0.2 -16.6,0.1 -24.9,0.1c-8.4,0 -16.8,0 -25.2,0c-8.3,0 -16.6,0 -25,0c0.4,5.6 2.3,10.4 5.8,14.4c5.6,6.3 12.8,9.7 21.3,10.1c9,0.4 17.1,-2.1 23.7,-8.4c1.3,-1.2 2.5,-2.7 3.9,-4.1c5.2,4.2 10.5,8.4 16,12.9zm-18.8,-42.8c0.1,-0.3 0.3,-0.5 0.3,-0.8c-0.1,-8.4 -3.8,-18.1 -15.6,-21.6c-5.4,-1.6 -10.9,-1.4 -16.4,-0.4c-10.8,2.1 -17.7,9.1 -19.7,19.9c-0.2,0.9 -0.2,1.8 -0.2,2.8c17.3,0.1 34.5,0.1 51.6,0.1z"/>
 </g>
</svg>